<svg xmlns="http://www.w3.org/2000/svg" width="50" height="50.045" viewBox="0 0 50 50.045">
  <g id="logo" transform="translate(-34.016 -482.134)">
    <path id="Path_437" data-name="Path 437" d="M78.868,482.134H39.949c-6.368.024-5.927,5.511-5.927,5.511s.013,32.074.013,38.613,5.57,5.9,5.57,5.9H84v-44.5a5.1,5.1,0,0,0-5.124-5.52Z" transform="translate(0 0)" fill="#00a1ed"/>
    <path id="Path_438" data-name="Path 438" d="M68.7,541.642a.334.334,0,0,1-.378.378H65.3a.334.334,0,0,1-.378-.378v-6.952a.971.971,0,0,0-.947-.946h-.945a.927.927,0,0,0-.681.284.9.9,0,0,0-.266.662v6.952a.334.334,0,0,1-.378.378H58.67a.334.334,0,0,1-.378-.378v-6.952a.971.971,0,0,0-.946-.946H56.4a.927.927,0,0,0-.681.284.9.9,0,0,0-.264.662v6.952a.336.336,0,0,1-.378.378H52.048a.334.334,0,0,1-.378-.378v-7.656a1.6,1.6,0,0,1,1.022-1.439,3.735,3.735,0,0,1,1.818-.454H65.871a3.733,3.733,0,0,1,1.815.454,1.6,1.6,0,0,1,1.023,1.439Z" transform="translate(-7.166 -20.432)" fill="#fff"/>
    <path id="Path_439" data-name="Path 439" d="M86.886,523.126h.664a.334.334,0,0,1,.378.378v4.412a.334.334,0,0,0,.378.378h3.406a1.6,1.6,0,0,1-1.022,1.438,3.749,3.749,0,0,1-1.818.454h-.566a.334.334,0,0,0-.378.378v5.776a1.6,1.6,0,0,1-1.022,1.438,3.724,3.724,0,0,1-1.721.463h-.662a.334.334,0,0,1-.378-.378V525.027a1.6,1.6,0,0,1,1.022-1.438,3.725,3.725,0,0,1,1.721-.462" transform="translate(-20.536 -16.686)" fill="#fff"/>
    <path id="Path_440" data-name="Path 440" d="M104.273,540.128a1.6,1.6,0,0,1-1.023,1.44,3.73,3.73,0,0,1-1.817.454l-4.332-.008h-.4a3.732,3.732,0,0,1-1.818-.454,1.608,1.608,0,0,1-1.023-1.432v-2.6a1.6,1.6,0,0,1,1.023-1.438,3.725,3.725,0,0,1,1.818-.454h3.406a.334.334,0,0,0,.378-.378v-.893a.336.336,0,0,0-.378-.378h-.443a3.743,3.743,0,0,1-1.818-.453,1.6,1.6,0,0,1-1.022-1.44h4.609a3.735,3.735,0,0,1,1.817.454,1.6,1.6,0,0,1,1.023,1.438Zm-3.785-.7v-1.756a.334.334,0,0,0-.378-.379H98.6a.935.935,0,0,0-.681.284.9.9,0,0,0-.265.661v1.19a.908.908,0,0,0,.946.946h.946a.9.9,0,0,0,.664-.265.925.925,0,0,0,.284-.681" transform="translate(-24.373 -20.433)" fill="#fff"/>
    <path id="Path_441" data-name="Path 441" d="M109.311,555.243a1.553,1.553,0,0,0-1.022-.252H107.27v3.372h1.019a1.479,1.479,0,0,0,1.022-.252,2.523,2.523,0,0,0,0-2.858m-.062,1.426c0,.582-.082.913-.265,1.077a1.045,1.045,0,0,1-.7.161h-.511v-2.473h.511a1.04,1.04,0,0,1,.7.161,1.473,1.473,0,0,1,.267,1.072" transform="translate(-30.028 -29.857)" fill="#fff"/>
    <path id="Path_442" data-name="Path 442" d="M100.365,555.434v-.449H98.259v3.372h2.106v-.452h-1.6v-1.064h1.167v-.451H98.764v-.96Z" transform="translate(-26.408 -29.857)" fill="#fff"/>
    <path id="Path_443" data-name="Path 443" d="M90.514,556.935a.78.78,0,0,0,.378-.17,1.278,1.278,0,0,0,0-1.574.934.934,0,0,0-.631-.206H89v3.372h.5V556.97h.467l.718,1.388h.556s-.616-1.181-.741-1.422m.15-.96c0,.323-.069.42-.1.447a.378.378,0,0,1-.3.1H89.5v-1.082h.757a.378.378,0,0,1,.289.1.631.631,0,0,1,.1.434" transform="translate(-22.604 -29.857)" fill="#fff"/>
    <path id="Path_444" data-name="Path 444" d="M81.285,554.985h-.379v2.444c0,.342-.368.52-.73.52s-.73-.182-.73-.52v-2.444h-.5v2.407c0,.747.665,1.009,1.234,1.009s1.234-.265,1.234-1.009v-2.407Z" transform="translate(-18.468 -29.857)" fill="#fff"/>
    <path id="Path_445" data-name="Path 445" d="M71.412,556.643l-.757-.493a.542.542,0,0,1-.275-.482.207.207,0,0,1,.069-.175.828.828,0,0,1,.487-.126,5.18,5.18,0,0,1,.662.044l.132.02.045-.476-.833-.038a1.216,1.216,0,0,0-.85.252.655.655,0,0,0-.214.5,1.017,1.017,0,0,0,.531.9l.768.493c.267.167.336.27.336.5a.252.252,0,0,1-.066.2.952.952,0,0,1-.6.158,5.762,5.762,0,0,1-.747-.062l-.139-.023-.034.479.126.013c.222.023.606.042.776.042a1.357,1.357,0,0,0,.96-.27.734.734,0,0,0,.231-.529.989.989,0,0,0-.6-.924" transform="translate(-14.74 -29.826)" fill="#fff"/>
    <path id="Path_446" data-name="Path 446" d="M62.708,556.643l-.757-.493a.544.544,0,0,1-.276-.482.2.2,0,0,1,.071-.176.823.823,0,0,1,.484-.126,5.242,5.242,0,0,1,.665.044l.132.02.045-.476-.833-.038a1.214,1.214,0,0,0-.852.252.653.653,0,0,0-.214.5,1.009,1.009,0,0,0,.532.9l.768.493c.266.167.334.27.334.5a.24.24,0,0,1-.066.194.938.938,0,0,1-.6.159,5.75,5.75,0,0,1-.748-.062l-.138-.023-.034.479.126.013c.221.023.606.042.776.042a1.356,1.356,0,0,0,.96-.27.736.736,0,0,0,.23-.529.988.988,0,0,0-.6-.924" transform="translate(-11.162 -29.826)" fill="#fff"/>
    <path id="Path_447" data-name="Path 447" d="M52.58,554.985l-1.128,3.372h.529s.2-.617.252-.757h1.231l.252.757h.527l-1.127-3.372Zm-.2,2.175.466-1.412c.139.42.394,1.189.467,1.412Z" transform="translate(-7.165 -29.857)" fill="#fff"/>
  </g>
</svg>
